<?xml version="1.0" encoding="UTF-8"?>
<svg fill="#FFFFFF" width="610.77" height="383.04" version="1.1" viewBox="0 0 610.77 383.04" xmlns="http://www.w3.org/2000/svg" xmlns:cc="http://creativecommons.org/ns#" xmlns:dc="http://purl.org/dc/elements/1.1/" xmlns:rdf="http://www.w3.org/1999/02/22-rdf-syntax-ns#">
 <g transform="translate(6.192e-6 -19.807)">
  <g>
   <g transform="translate(-269.1 19.807)">
    <g>
     <path d="m463.85 68.253c-1.2936-0.03892-2.5971 0.12262-3.8496 0.49512-19.34 4.65-38.51 10.111-57.22 16.881-13.98 5-27.621 11.159-39.971 19.449-5.02 3.38-9.8895 6.9812-14.459 10.951-1.08 0.95-2.2693 1.9497-2.5693 3.4497 1.46 9.02 10.05 13.88 17.47 17.65 12.19 5.61 25.929 8.8296 39.369 7.3096-4-3.4-9.56-3.9392-13.79-6.9492-1.72-1.29-1.7592-3.6105-2.2192-5.5005-4.13 0.82-8.0506 2.4001-12.141 3.3501 3.77-2.32 7.8705-4.0303 11.791-6.0703 20.96-8.99 43.619-12.86 66.089-15.94 15.66-1.71 31.65-2.25 46.8-6.98-1.23-3.4-1.8502-8.3894-6.2402-8.9194-9.44-4.93-13.959-15.09-19.399-23.67-1.995-3.465-5.7799-5.3882-9.6606-5.5049z"/>
     <path d="m657.76 68.266c-2.9984-0.0459-5.9936 0.83572-8.1386 3.022-3.03 3.16-4.7904 7.2396-7.1104 10.89-3.32 5.78-7.6091 11.141-13.289 14.741-1.46 0.96-3.6798 0.77978-4.5498 2.5298-1.3 2.14-2.131 4.5607-2.581 7.0107 15.17 4.52 31.07 4.9992 46.68 6.9492 24.76 3.12 49.8 7.6601 72.36 18.81 1.91 1.04 3.86 2.0794 5.77 3.1494-4.11-1.06-8.1497-2.4001-12.22-3.5801-0.66998 2.04-0.7407 4.6101-2.7407 5.8901-4.17 2.81-9.6189 3.3312-13.399 6.7412 6.42 0.86 12.929 0.25982 19.269-0.93017 12.34-2.4 24.92-6.9898 33.93-16.09l0.10988 0.0395c1.98-2.67 3.06-5.8199 3.46-9.1099-14.44-13.37-31.899-23.18-50.209-30.19-20.61-7.95-41.89-14.04-63.33-19.27-1.2844-0.36874-2.6492-0.5812-4.0122-0.60205z"/>
     <path d="m560.57 0.0013704c-0.8675-0.032475-1.7326 0.51154-1.8926 1.7065-3.56 11.73-6.7287 23.86-13.449 34.28-2.42 3.84-5.9111 6.8896-9.8511 9.0996-9.52 5.44-20.139 8.45-30.539 11.71-1.64 0.43-2.9699 1.5002-4.1499 2.6602 1.2 1 2.449 2.02 3.999 2.48 11.18 3.57 22.76 6.6905 32.77 13.061 5.93 3.66 9.4896 9.9596 12.39 16.08 3.71 8.54 6.2404 17.5 8.9605 26.38 0.76999 2.56 3.8406 1.07 3.8906-1.04 2.28-8.52 5.1591-16.851 8.3291-25.061 1.6829-4.0317 3.8304-7.4792 6.1904-10.409 2.89-3.99 7.1702-6.5899 11.43-8.8799 1.55-0.74 3.1204-1.4804 4.6904-2.2104 7.45-3.09 15.159-5.4698 22.859-7.8398 1.52-0.67 4.0508-1.1298 3.6108-3.3398-1.4-1.17-3.1398-1.7903-4.8398-2.3203-10.12-3.09-20.39-6.15-29.59-11.48-3.95-2.24-7.351-5.4007-9.731-9.2607-6.52-10.34-9.709-22.27-13.169-33.86-0.17-1.115-1.0412-1.7239-1.9087-1.7563z"/>
    </g>
   </g>
   <g transform="translate(390.65 97.523)">
    <path d="m107.16 77.111c-7.1212-0.04275-14.244 0.61746-21.233 2.0068-24.27 4.88-46.151 19.311-61.241 38.801-8.34 10.82-14.8 23.08-18.93 36.1-4.29 13.52-6.2302 27.79-5.6602 41.96 0.33 7.53 1.2402 15.04 2.9502 22.38 1.25 5.51 2.8999 10.92 4.8999 16.21l0.10986 0.0498c2.86 7.86 6.8003 15.3 11.32 22.32 0.67 0.66 1.0006 2.2097 2.1006 2.1797l-0.49951 0.12012c6.18 8.98 13.72 17.001 22.2 23.861l0.29004 0.0103c7.91 6.57 17.02 11.66 26.59 15.4 13.54 5.38 28.25 7.4094 42.76 6.6694 23.57-0.87999 47.75-5.5101 68.12-17.89 6.24-3.22 11.86-7.8001 16.74-12.87 0.03-5.02 0.0291-10.04 0.0791-15.05-0.01-7.88 0.13115-15.759-0.0689-23.629 0.3-5.15-0.51116-10.51 1.5688-15.4l-0.18018 0.23877c2.11-3.95 5.4214-7.2697 9.4614-9.2197 3.67-2.02 8.3096-2.0498 11.58-4.7798-0.03-0.55-0.10038-1.6502-0.13038-2.2002-2.72-0.38001-5.4599-0.23025-8.1899-0.24025-33.32 0.02-66.639-0.01-99.959 0.0205-1.98-0.51-4.4612 1.3396-2.9312 3.3897 2.36 2.28 5.9109 2.6001 8.9209 3.5801 9 1.87 17.75 6.061 23.44 13.481 1.79 3.42 3.5889 7.0088 3.5889 10.969 0.12 11.73-0.0994 23.451 0.0806 35.181-0.43 6.02-0.45981 12.269-3.0498 17.849-4.72 5.17-12.43 2.97-18.59 3.29-10.62-1.58-20.62-6.36-28.62-13.5-7.44-6.59-13.44-14.689-18.11-23.439-4.16-7.94-7.3304-16.361-9.6504-25.011-1.22-5.04-2.2001-10.13-3.0601-15.24-1.06-9.12-1.5994-18.3-1.1894-27.47 0.67-11.52 2.55-22.96 5.77-34.04l0.13916-9e-3c3.59-12.09 9.2302-23.57 16.74-33.71 4.86-5.94 10.241-11.55 16.711-15.75 10.65-7.23 24.26-10.271 36.87-7.1909 13.61 3.13 24.9 12.441 33.29 23.281 5.45 7.31 9.819 15.37 13.229 23.81 1.5 3.94 2.921 7.9097 4.021 11.99 0.76 2.49 1.0886 5.3309 3.1186 7.1909 3.35-6.26 2.6504-13.661 3.4204-20.511 0.38-6.88 0.55103-13.77 0.56104-20.65-0.25001-6.93 0.12916-14.09-2.1108-20.75-12.44 0.31999-24.25-4.1999-35-10.09-15.884-8.8838-34.069-13.588-52.267-13.698z"/>
   </g>
   <g transform="matrix(2.8617 0 0 3.7433 -173.33 -1108.1)">
    <path d="m66.639 342.68c-1.3992-5e-3 -2.806 0.0478-4.021 0.82031 1.63 1.29 3.5704 2.0497 5.4404 2.9297 3.42 1.6 5.4194 5.4409 5.3394 9.1509 0.03 11.66 0.01 23.33 0 35 0.19 4.56-3.4189 8.4597-7.6289 9.6797-1.83 0.92-4.9102 0.71055-5.2002 3.3105 15.3 0.10001 30.599 0.10023 45.899 0.0103-0.16-2.33-2.6903-2.3208-4.3403-3.0308-4.05-1.02-7.8592-4.179-8.3892-8.499-0.27-4.11-0.0301-8.2313-0.12012-12.341 6.76 0 13.799 0.3309 20.169-2.3291 5.6-2.17 11.09-6.0108 13.21-11.861 1.86-4.97 0.0799-10.679-3.5801-14.339-5.77-5.9-14.269-8.3697-22.349-8.4697-11.01-0.05-22.031 0.0292-33.041-0.0308-0.4575 0.01-0.92227 2e-3 -1.3887 0zm27.009 4.27c5.83 0.33 11.893 4.2968 13.309 10.63 1.4552 9.2042-3.2139 16.215-13.298 17.7-0.05-9.45-0.0302-18.89-0.0103-28.33z"/>
   </g>
   <g transform="matrix(1.8768 0 0 1.8768 -1375.7 -200.26)" style="shape-inside:url(#rect122);white-space:pre" aria-label="o">
    <path d="m889.25 230.15q9.888 0 18.144 3.552 8.352 3.456 14.304 9.6 5.952 6.048 9.312 14.304t3.36 17.664q0 9.504-3.648 17.856t-9.984 14.688q-6.336 6.24-14.976 9.888-8.544 3.648-18.432 3.648t-18.24-3.456q-8.256-3.552-14.208-9.6-5.952-6.144-9.312-14.304-3.36-8.256-3.36-17.76 0-9.408 3.648-17.76 3.648-8.448 9.984-14.688 6.336-6.336 14.88-9.984 8.64-3.648 18.528-3.648zm-0.96 86.112q4.608 0 7.968-3.168 3.456-3.168 5.664-8.64 2.304-5.568 3.456-12.96t1.152-15.744-1.152-15.744-3.456-12.864q-2.208-5.568-5.664-8.736-3.36-3.168-7.968-3.168t-8.064 3.168q-3.36 3.168-5.664 8.736-2.304 5.472-3.456 12.864-1.056 7.392-1.056 15.744t1.056 15.744q1.152 7.392 3.456 12.96 2.304 5.472 5.664 8.64 3.456 3.168 8.064 3.168z"/>
   </g>
  </g>
 </g>
</svg>
