<?xml version="1.0" standalone="no"?>
<!DOCTYPE svg PUBLIC "-//W3C//DTD SVG 20010904//EN"
 "http://www.w3.org/TR/2001/REC-SVG-20010904/DTD/svg10.dtd">
<svg version="1.0" xmlns="http://www.w3.org/2000/svg"
 width="1222.000000pt" height="1222.000000pt" viewBox="0 0 1222.000000 1222.000000"
 preserveAspectRatio="xMidYMid meet">
<metadata>
Created by potrace 1.11, written by Peter Selinger 2001-2013
</metadata>
<g transform="translate(0.000000,1222.000000) scale(0.100000,-0.100000)"
fill="#000000" stroke="none">
<path d="M5802 9923 c-5 -10 -17 -45 -26 -78 -10 -33 -19 -64 -21 -70 -1 -5
-3 -12 -3 -15 -1 -3 -13 -39 -28 -80 -14 -41 -26 -79 -28 -85 -2 -13 -24 -70
-42 -112 -8 -17 -14 -35 -14 -40 0 -14 -88 -182 -119 -227 -35 -51 -85 -103
-131 -137 -40 -30 -169 -96 -250 -129 -30 -12 -68 -28 -85 -35 -29 -12 -249
-85 -270 -89 -42 -8 -116 -40 -131 -57 -18 -20 -18 -21 6 -39 13 -10 69 -32
125 -50 55 -17 107 -34 115 -37 8 -3 20 -7 25 -9 25 -6 194 -67 225 -81 96
-43 198 -96 234 -123 22 -16 114 -108 132 -132 78 -101 187 -377 280 -710 11
-38 71 -20 80 25 1 4 2 8 4 10 1 1 3 11 5 22 2 11 5 29 8 40 12 46 116 352
137 400 5 11 16 38 26 60 47 108 200 295 241 295 7 0 13 4 13 8 0 7 212 115
232 118 5 1 10 3 13 4 3 1 8 3 13 5 4 1 18 6 32 12 14 6 106 37 205 68 175 56
216 76 212 98 -4 24 -27 36 -138 72 -227 74 -295 97 -329 112 -19 8 -44 19
-55 23 -18 7 -87 41 -160 78 -16 9 -36 21 -42 26 -7 6 -30 25 -52 41 -21 17
-56 54 -77 82 -49 66 -128 212 -150 278 -9 28 -19 55 -23 60 -3 6 -6 12 -7 15
0 3 -3 12 -7 20 -10 25 -87 271 -91 289 -4 20 -15 51 -25 71 -12 22 -48 24
-59 3z"/>
<path d="M3830 8568 c-56 -13 -71 -17 -88 -22 -9 -3 -28 -7 -42 -10 -14 -3
-43 -10 -65 -16 -22 -6 -47 -13 -55 -14 -8 -1 -33 -8 -55 -15 -22 -6 -56 -16
-75 -21 -91 -24 -229 -63 -270 -77 -25 -8 -52 -16 -60 -18 -8 -2 -46 -13 -85
-25 -38 -13 -74 -23 -80 -24 -5 -1 -14 -4 -20 -7 -5 -4 -35 -14 -65 -23 -30
-10 -77 -26 -105 -36 -27 -10 -102 -37 -165 -60 -63 -23 -144 -56 -180 -72
-36 -17 -69 -31 -75 -32 -16 -3 -273 -134 -315 -161 -22 -14 -42 -25 -44 -25
-19 0 -278 -187 -380 -274 -66 -56 -77 -78 -64 -121 37 -118 130 -208 315
-303 49 -25 156 -71 183 -77 3 -1 12 -5 20 -8 24 -10 160 -46 220 -57 89 -18
129 -22 235 -24 103 -2 145 2 145 13 0 7 -43 30 -105 56 -130 55 -165 75 -180
104 -8 17 -15 36 -15 43 -1 35 -15 38 -86 18 -38 -11 -77 -22 -87 -25 -10 -2
-27 -7 -38 -10 -51 -16 -7 11 104 64 142 69 274 123 357 146 8 2 47 14 85 26
174 53 509 126 713 154 12 2 53 8 91 15 37 6 72 10 77 9 5 -1 11 0 14 1 12 4
48 10 95 15 28 2 70 7 95 10 25 4 70 8 100 10 30 2 77 7 105 10 128 14 152 17
175 20 14 2 49 7 79 10 30 4 63 9 75 11 12 2 37 7 56 10 19 3 62 12 95 20 140
35 136 33 131 57 -15 70 -50 131 -86 148 -14 7 -41 19 -60 28 -39 18 -159 134
-186 180 -10 17 -22 31 -26 31 -4 0 -8 4 -8 9 0 11 -129 219 -164 266 -46 60
-151 93 -236 73z"/>
<path d="M7717 8569 c-82 -19 -116 -54 -219 -226 -121 -203 -210 -300 -320
-351 -49 -22 -61 -33 -79 -72 -12 -25 -23 -52 -24 -60 -2 -8 -4 -15 -5 -15 -1
0 -3 -7 -5 -16 -2 -11 8 -20 34 -27 41 -13 211 -50 256 -56 17 -2 30 -5 30 -6
0 -2 33 -5 125 -14 36 -4 76 -9 90 -11 35 -6 126 -16 180 -20 45 -3 119 -11
195 -21 22 -3 54 -7 70 -9 55 -5 143 -18 245 -35 36 -6 83 -13 105 -16 22 -3
69 -12 105 -20 36 -8 79 -16 95 -19 41 -6 127 -25 145 -32 8 -4 18 -6 21 -5 4
1 22 -3 40 -9 19 -6 42 -12 52 -14 10 -2 32 -9 50 -14 18 -6 70 -22 117 -37
47 -14 100 -32 118 -40 18 -8 37 -14 42 -14 5 0 39 -13 75 -30 36 -16 68 -30
72 -30 7 0 206 -100 213 -107 5 -6 -14 -1 -105 27 -122 37 -121 37 -133 -13
-6 -24 -20 -51 -29 -60 -18 -16 -143 -75 -173 -81 -3 -1 -29 -15 -59 -31 l-55
-30 35 -5 c61 -10 252 -1 320 14 13 3 35 8 49 10 14 3 36 8 50 11 14 3 37 7
51 10 98 18 417 157 427 186 2 5 9 9 16 9 7 0 44 30 83 68 63 60 73 74 92 136
12 37 21 69 21 71 0 7 -42 47 -93 88 -32 26 -64 52 -70 57 -18 15 -108 82
-144 108 -18 12 -36 22 -42 22 -5 0 -11 4 -13 9 -9 26 -491 281 -530 281 -8 0
-18 4 -23 8 -6 5 -37 19 -70 31 -33 13 -69 27 -80 31 -52 22 -327 117 -363
125 -9 3 -51 16 -92 30 -41 15 -82 28 -90 30 -25 5 -314 87 -330 93 -17 6 -25
8 -60 16 -14 3 -52 13 -85 22 -33 9 -67 17 -75 19 -8 2 -42 10 -75 18 -84 21
-134 26 -178 16z"/>
<path d="M287 6844 c-1 -1 -18 -4 -37 -7 -38 -5 -130 -42 -130 -52 0 -18 111
-102 238 -179 124 -76 205 -148 240 -216 7 -14 22 -41 32 -60 43 -78 74 -179
97 -310 8 -42 9 -2821 2 -2875 -21 -152 -54 -241 -133 -364 -27 -42 -117 -137
-164 -174 -42 -32 -212 -115 -272 -132 -77 -22 -149 -98 -153 -163 l-2 -27
1313 -2 1313 -2 -7 32 c-19 86 -52 118 -176 168 -170 70 -238 110 -317 189
-94 95 -93 94 -142 184 -36 67 -50 102 -65 159 -10 39 -15 63 -20 87 -3 14 -7
238 -9 498 l-3 472 21 0 c93 -1 550 10 582 15 22 3 56 7 75 9 19 2 42 7 50 10
8 2 31 7 50 10 92 12 249 66 360 124 47 25 95 50 107 56 13 6 23 14 23 19 0 4
5 7 11 7 19 0 162 106 237 177 80 74 202 214 202 232 0 6 5 11 10 11 6 0 10 6
10 13 0 7 9 23 20 35 11 12 20 26 20 32 0 5 4 10 10 10 5 0 9 3 8 8 0 4 15 41
34 82 187 394 157 855 -81 1225 -49 76 -149 195 -221 263 -73 69 -260 209
-260 194 0 -4 -4 -2 -8 4 -7 10 -124 73 -202 107 -49 22 -212 75 -248 80 -17
3 -34 7 -39 10 -4 2 -33 8 -63 12 -30 4 -66 9 -80 11 -82 13 -319 16 -1223 17
-555 1 -1009 1 -1010 1z m1718 -338 c11 -2 21 -5 23 -5 1 -1 4 -1 7 -1 3 0 19
-7 35 -15 16 -8 32 -15 35 -15 10 1 111 -54 155 -83 51 -35 210 -192 210 -208
0 -5 9 -19 19 -30 31 -33 123 -230 137 -291 1 -5 2 -9 4 -10 1 -2 3 -10 5 -18
2 -8 7 -26 10 -40 13 -51 18 -139 19 -305 0 -178 -5 -231 -29 -330 -9 -33 -17
-68 -20 -78 -8 -33 -17 -62 -30 -92 -15 -36 -22 -57 -23 -69 0 -5 -4 -12 -9
-15 -5 -3 -17 -22 -26 -41 -70 -148 -230 -300 -397 -379 -86 -40 -228 -84
-234 -72 -3 6 -1 2102 2 2110 2 3 70 -5 107 -13z"/>
<path d="M9846 6843 c-1 -1 -35 -4 -76 -7 -41 -3 -86 -7 -100 -10 -14 -2 -43
-7 -65 -10 -46 -6 -213 -43 -235 -53 -8 -3 -18 -7 -22 -8 -5 -2 -9 -3 -10 -5
-2 -1 -11 -3 -20 -5 -56 -11 -253 -98 -373 -164 -59 -34 -237 -153 -261 -176
-12 -11 -41 -36 -65 -55 -202 -163 -417 -440 -549 -705 -14 -27 -27 -52 -30
-55 -3 -3 -6 -9 -7 -15 -1 -5 -21 -57 -44 -115 -23 -58 -45 -114 -49 -125 -9
-24 -49 -162 -54 -190 -3 -11 -10 -42 -16 -70 -17 -72 -17 -75 -25 -140 -4
-33 -9 -69 -12 -80 -21 -107 -20 -475 3 -605 2 -14 7 -45 10 -70 3 -25 8 -47
9 -50 2 -3 6 -26 10 -50 8 -50 10 -58 17 -80 3 -8 13 -44 22 -80 9 -36 18 -72
21 -80 2 -8 13 -40 24 -70 11 -30 27 -75 36 -100 20 -54 124 -268 160 -329 28
-47 119 -183 140 -210 75 -94 142 -170 214 -241 94 -93 179 -170 188 -170 3 0
24 -15 47 -33 98 -79 309 -200 455 -260 73 -30 272 -91 331 -101 14 -3 49 -10
79 -15 101 -20 185 -26 376 -25 159 0 346 8 365 15 3 1 8 1 11 1 6 -1 127 16
169 23 14 2 43 7 65 10 22 4 49 9 60 12 11 3 31 7 45 9 67 7 354 94 464 142
120 51 396 201 426 232 3 3 26 22 51 42 26 21 68 57 94 81 l46 44 1 484 c1
525 5 569 55 637 59 82 173 161 253 175 14 3 51 16 83 30 42 19 57 31 57 46 0
11 -6 23 -12 27 -18 12 -2168 12 -2195 1 -34 -15 -35 -44 -2 -71 32 -28 27
-25 164 -61 255 -67 426 -179 492 -321 48 -104 49 -115 47 -564 -1 -399 -3
-451 -26 -560 -6 -30 -11 -58 -10 -62 1 -3 -5 -12 -13 -18 -8 -7 -15 -18 -15
-24 0 -18 -62 -53 -110 -63 -92 -19 -306 -3 -410 30 -263 84 -484 256 -673
525 -20 28 -37 55 -37 59 0 3 -6 14 -14 22 -20 22 -118 216 -140 276 -11 28
-22 55 -26 60 -3 6 -21 57 -39 115 -19 58 -37 114 -42 125 -4 11 -10 34 -12
50 -3 17 -8 42 -11 58 -3 15 -8 37 -10 50 -3 12 -7 31 -9 42 -3 11 -8 40 -12
65 -4 25 -9 53 -11 63 -3 15 -9 79 -19 197 -5 55 -5 369 -1 425 8 89 25 226
33 260 2 11 6 34 9 50 3 17 10 55 17 85 6 30 12 60 13 65 0 6 4 17 7 25 4 8 9
26 11 40 3 14 5 25 6 25 1 0 3 7 5 15 4 23 54 172 65 195 5 11 21 49 36 85 25
62 101 214 127 255 102 161 153 227 263 339 44 45 184 160 184 151 0 -3 9 4
20 15 11 11 25 20 32 20 6 0 19 6 27 13 25 21 152 74 218 91 99 26 134 30 248
30 159 0 247 -20 393 -89 85 -41 192 -108 200 -127 2 -5 9 -8 16 -8 15 0 222
-208 251 -251 6 -9 38 -57 71 -107 62 -91 191 -332 178 -332 -3 0 -2 -6 4 -13
8 -9 68 -161 72 -182 0 -3 2 -10 5 -17 2 -7 15 -52 30 -100 14 -48 32 -94 41
-102 17 -18 28 -21 19 -7 -3 5 -1 12 4 15 13 9 42 139 46 211 2 33 7 114 11
180 13 196 10 620 -4 710 -19 118 -15 111 -80 114 -205 7 -365 58 -667 212
-93 47 -210 101 -260 119 -49 18 -97 35 -105 38 -45 16 -212 59 -255 66 -22 3
-51 8 -65 10 -97 18 -218 28 -348 30 -57 0 -105 0 -106 -1z"/>
<path d="M5807 5704 c-1 -1 -40 -5 -87 -8 -47 -3 -98 -8 -115 -11 -95 -16
-104 -17 -177 -34 -103 -24 -239 -75 -365 -138 -73 -37 -133 -70 -133 -75 0
-4 -5 -8 -10 -8 -12 0 -85 -47 -111 -70 -9 -8 -31 -26 -50 -40 -59 -45 -160
-139 -229 -216 -70 -78 -210 -279 -210 -302 0 -5 -6 -15 -13 -21 -8 -6 -20
-29 -27 -51 -7 -22 -16 -40 -20 -40 -4 0 -11 -15 -17 -32 -6 -18 -21 -58 -33
-88 -45 -114 -84 -273 -98 -395 -9 -77 -8 -310 0 -400 13 -132 37 -242 80
-369 32 -97 135 -319 149 -324 5 -2 9 -8 9 -14 0 -9 56 -96 69 -108 3 -3 17
-21 30 -40 89 -128 270 -290 441 -397 139 -86 382 -183 495 -199 11 -1 20 -3
20 -4 0 -2 21 -6 77 -15 180 -29 539 -26 648 5 17 5 33 9 35 9 3 0 15 3 28 6
12 3 33 7 47 9 14 3 26 5 28 7 1 1 5 2 10 3 86 20 339 124 373 153 8 7 19 13
22 13 13 0 115 66 202 131 101 75 206 174 280 264 28 33 55 63 60 67 6 5 6 8
1 8 -6 0 -3 6 5 13 22 17 98 137 147 230 76 144 156 377 167 487 2 14 4 25 5
25 5 0 13 119 14 192 1 46 5 83 9 83 5 0 6 8 3 18 -3 9 -8 61 -11 114 -3 53
-8 106 -10 116 -2 11 -6 35 -9 53 -9 54 -34 161 -46 199 -6 19 -13 44 -15 55
-16 75 -128 302 -206 417 -80 119 -79 118 -204 243 -210 210 -471 354 -780
431 -36 9 -43 10 -120 23 -83 15 -349 33 -358 25z m155 -211 c121 -36 249
-162 335 -330 45 -89 118 -289 130 -353 2 -14 9 -43 15 -65 13 -50 16 -69 24
-125 3 -25 8 -54 10 -65 8 -43 16 -101 19 -149 2 -28 7 -94 11 -146 13 -173 7
-560 -11 -685 -2 -16 -6 -50 -9 -75 -12 -98 -19 -144 -30 -190 -3 -14 -8 -36
-10 -50 -2 -14 -11 -54 -20 -90 -94 -368 -256 -609 -457 -677 -65 -22 -238
-24 -263 -3 -9 7 -16 9 -16 6 0 -4 -28 8 -61 25 -69 37 -152 114 -195 180 -16
24 -31 46 -35 49 -7 6 -68 126 -79 155 -4 11 -12 31 -18 45 -27 61 -80 248
-97 340 -3 19 -8 44 -10 55 -8 43 -16 108 -30 230 -16 133 -22 538 -11 695 10
137 20 231 32 307 3 21 7 47 9 58 1 11 5 31 9 45 7 32 17 80 20 102 1 10 5 21
9 24 4 4 7 15 7 24 0 59 107 319 176 426 74 117 194 213 299 242 56 15 188 12
247 -5z"/>
</g>
</svg>
